<?xml version="1.0" encoding="UTF-8"?>
<svg id="Layer_1" xmlns="http://www.w3.org/2000/svg" version="1.1" viewBox="0 0 240 234">
  <!-- Generator: Adobe Illustrator 29.5.1, SVG Export Plug-In . SVG Version: 2.1.0 Build 141)  -->
  <defs>
    <style>
      .st0 {
        fill: #0acf83;
      }

      .st1 {
        fill: #ff7262;
      }

      .st2 {
        fill: #1abcfe;
      }

      .st3 {
        fill: #f24e1e;
      }

      .st4 {
        fill: #a259ff;
      }
    </style>
  </defs>
  <g id="Layer_2">
    <g id="Surfaces">
      <g id="Drawing_Surface">
        <g id="Outline_no_shadow">
          <path d="M42.5,0h155c23.5,0,42.5,19,42.5,42.5v149c0,23.5-19,42.5-42.5,42.5H42.5c-23.5,0-42.5-19-42.5-42.5V42.5C0,19,19,0,42.5,0Z"/>
        </g>
      </g>
    </g>
  </g>
  <g>
    <path id="path0_fill" class="st0" d="M87.6,214.3c17.9,0,32.4-14.5,32.4-32.4v-32.4h-32.4c-17.9,0-32.4,14.5-32.4,32.4s14.5,32.4,32.4,32.4Z"/>
    <path id="path1_fill" class="st4" d="M55.1,117c0-17.9,14.5-32.4,32.4-32.4h32.4v64.9h-32.4c-17.9,0-32.4-14.5-32.4-32.4Z"/>
    <path id="path1_fill1" data-name="path1_fill" class="st3" d="M55.1,52.1c0-17.9,14.5-32.4,32.4-32.4h32.4v64.9h-32.4c-17.9,0-32.4-14.5-32.4-32.4Z"/>
    <path id="path2_fill" class="st1" d="M120,19.7h32.4c17.9,0,32.4,14.5,32.4,32.4s-14.5,32.4-32.4,32.4h-32.4V19.7Z"/>
    <path id="path3_fill" class="st2" d="M184.9,117c0,17.9-14.5,32.4-32.4,32.4s-32.4-14.5-32.4-32.4,14.5-32.4,32.4-32.4,32.4,14.5,32.4,32.4Z"/>
  </g>
</svg>
